<svg width="140" height="24" viewBox="0 0 140 24" fill="none" xmlns="http://www.w3.org/2000/svg">
<path id="About Me" d="M14.7256 19.0156H7.67969L6.44922 23H0.956055L8.77832 1.67188H13.6123L21.4932 23H15.9707L14.7256 19.0156ZM8.91016 15.0459H13.4951L11.1953 7.64844L8.91016 15.0459ZM37.5479 15.207C37.5479 17.8047 37.0107 19.8018 35.9365 21.1982C34.8623 22.5947 33.3486 23.293 31.3955 23.293C29.7842 23.293 28.4854 22.6533 27.499 21.374L27.2939 23H22.8701V0.5H27.8066V8.4248C28.7246 7.37988 29.9111 6.85742 31.3662 6.85742C33.3389 6.85742 34.8623 7.56543 35.9365 8.98145C37.0107 10.3975 37.5479 12.3896 37.5479 14.958V15.207ZM32.5967 14.8994C32.5967 13.376 32.3916 12.292 31.9814 11.6475C31.5811 10.9932 30.9609 10.666 30.1211 10.666C29.0078 10.666 28.2363 11.0908 27.8066 11.9404V18.2393C28.2266 19.0791 29.0078 19.499 30.1504 19.499C31.3125 19.499 32.0498 18.9326 32.3623 17.7998C32.5186 17.2432 32.5967 16.2764 32.5967 14.8994ZM39.1152 14.9287C39.1152 13.3467 39.4229 11.9404 40.0381 10.71C40.6533 9.46973 41.5371 8.51758 42.6895 7.85352C43.8418 7.18945 45.1943 6.85742 46.7471 6.85742C49.1201 6.85742 50.9902 7.59473 52.3574 9.06934C53.7246 10.5342 54.4082 12.5312 54.4082 15.0605V15.2363C54.4082 17.707 53.7197 19.6699 52.3428 21.125C50.9756 22.5703 49.1201 23.293 46.7764 23.293C44.5205 23.293 42.709 22.6191 41.3418 21.2715C39.9746 19.9141 39.2373 18.0781 39.1299 15.7637L39.1152 14.9287ZM44.0518 15.2363C44.0518 16.7012 44.2812 17.7754 44.7402 18.459C45.1992 19.1426 45.8779 19.4844 46.7764 19.4844C48.5342 19.4844 49.4326 18.1318 49.4717 15.4268V14.9287C49.4717 12.0869 48.5635 10.666 46.7471 10.666C45.0967 10.666 44.2031 11.8916 44.0664 14.3428L44.0518 15.2363ZM66.0244 21.2861C64.9795 22.624 63.5684 23.293 61.791 23.293C60.0527 23.293 58.7344 22.79 57.8359 21.7842C56.9473 20.7686 56.5029 19.3135 56.5029 17.4189V7.15039H61.4395V17.4482C61.4395 18.8057 62.0986 19.4844 63.417 19.4844C64.5498 19.4844 65.3555 19.0791 65.834 18.2686V7.15039H70.7998V23H66.1709L66.0244 21.2861ZM79.2666 3.20996V7.15039H81.874V10.5781H79.2666V17.8291C79.2666 18.4248 79.374 18.8398 79.5889 19.0742C79.8037 19.3086 80.2285 19.4258 80.8633 19.4258C81.3516 19.4258 81.7617 19.3965 82.0938 19.3379V22.8682C81.2051 23.1514 80.2773 23.293 79.3105 23.293C77.6113 23.293 76.3564 22.8926 75.5459 22.0918C74.7354 21.291 74.3301 20.0752 74.3301 18.4443V10.5781H72.3086V7.15039H74.3301V3.20996H79.2666ZM105.751 1.67188L110.512 16.5107L115.258 1.67188H122.025V23H116.869V18.0195L117.367 7.82422L112.211 23H108.812L103.642 7.80957L104.14 18.0195V23H98.998V1.67188H105.751ZM132.748 23.293C130.316 23.293 128.349 22.5703 126.845 21.125C125.341 19.6699 124.589 17.7803 124.589 15.4561V15.0459C124.589 13.4248 124.887 11.9941 125.482 10.7539C126.088 9.51367 126.967 8.55664 128.119 7.88281C129.271 7.19922 130.639 6.85742 132.221 6.85742C134.447 6.85742 136.205 7.55078 137.494 8.9375C138.783 10.3145 139.428 12.2383 139.428 14.709V16.6279H129.613C129.789 17.5166 130.175 18.2148 130.771 18.7227C131.366 19.2305 132.138 19.4844 133.085 19.4844C134.647 19.4844 135.868 18.9375 136.747 17.8438L139.003 20.5098C138.388 21.3594 137.514 22.0381 136.381 22.5459C135.258 23.0439 134.047 23.293 132.748 23.293ZM132.191 10.666C130.746 10.666 129.887 11.623 129.613 13.5371H134.594V13.1562C134.613 12.3652 134.413 11.7549 133.993 11.3252C133.573 10.8857 132.973 10.666 132.191 10.666Z" fill="black"/>
</svg>
