<svg width="155" height="23" viewBox="0 0 155 23" fill="none" xmlns="http://www.w3.org/2000/svg">
<path id="Contact Me" d="M17.8672 14.7783C17.7988 16.2627 17.3984 17.5762 16.666 18.7188C15.9336 19.8516 14.9033 20.7305 13.5752 21.3555C12.2568 21.9805 10.748 22.293 9.04883 22.293C6.24609 22.293 4.03906 21.3799 2.42773 19.5537C0.816406 17.7275 0.0107422 15.1494 0.0107422 11.8193V10.7646C0.0107422 8.6748 0.37207 6.84863 1.09473 5.28613C1.82715 3.71387 2.87695 2.50293 4.24414 1.65332C5.61133 0.793945 7.19336 0.364258 8.99023 0.364258C11.5781 0.364258 13.6582 1.04785 15.2305 2.41504C16.8027 3.77246 17.6963 5.64746 17.9111 8.04004H12.7842C12.7451 6.74121 12.418 5.80859 11.8027 5.24219C11.1875 4.67578 10.25 4.39258 8.99023 4.39258C7.71094 4.39258 6.77344 4.87109 6.17773 5.82812C5.58203 6.78516 5.26953 8.31348 5.24023 10.4131V11.9219C5.24023 14.1973 5.52344 15.8232 6.08984 16.7998C6.66602 17.7764 7.65234 18.2646 9.04883 18.2646C10.2305 18.2646 11.1338 17.9863 11.7588 17.4297C12.3838 16.873 12.7158 15.9893 12.7549 14.7783H17.8672ZM19.4492 13.9287C19.4492 12.3467 19.7568 10.9404 20.3721 9.70996C20.9873 8.46973 21.8711 7.51758 23.0234 6.85352C24.1758 6.18945 25.5283 5.85742 27.0811 5.85742C29.4541 5.85742 31.3242 6.59473 32.6914 8.06934C34.0586 9.53418 34.7422 11.5312 34.7422 14.0605V14.2363C34.7422 16.707 34.0537 18.6699 32.6768 20.125C31.3096 21.5703 29.4541 22.293 27.1104 22.293C24.8545 22.293 23.043 21.6191 21.6758 20.2715C20.3086 18.9141 19.5713 17.0781 19.4639 14.7637L19.4492 13.9287ZM24.3857 14.2363C24.3857 15.7012 24.6152 16.7754 25.0742 17.459C25.5332 18.1426 26.2119 18.4844 27.1104 18.4844C28.8682 18.4844 29.7666 17.1318 29.8057 14.4268V13.9287C29.8057 11.0869 28.8975 9.66602 27.0811 9.66602C25.4307 9.66602 24.5371 10.8916 24.4004 13.3428L24.3857 14.2363ZM41.4512 6.15039L41.6123 8.01074C42.7061 6.5752 44.2148 5.85742 46.1387 5.85742C47.7891 5.85742 49.0195 6.35059 49.8301 7.33691C50.6504 8.32324 51.0752 9.80762 51.1045 11.79V22H46.1533V11.9951C46.1533 11.1943 45.9922 10.6084 45.6699 10.2373C45.3477 9.85645 44.7617 9.66602 43.9121 9.66602C42.9453 9.66602 42.2275 10.0469 41.7588 10.8086V22H36.8223V6.15039H41.4512ZM59.6006 2.20996V6.15039H62.208V9.57812H59.6006V16.8291C59.6006 17.4248 59.708 17.8398 59.9229 18.0742C60.1377 18.3086 60.5625 18.4258 61.1973 18.4258C61.6855 18.4258 62.0957 18.3965 62.4277 18.3379V21.8682C61.5391 22.1514 60.6113 22.293 59.6445 22.293C57.9453 22.293 56.6904 21.8926 55.8799 21.0918C55.0693 20.291 54.6641 19.0752 54.6641 17.4443V9.57812H52.6426V6.15039H54.6641V2.20996H59.6006ZM73.0918 22C72.916 21.6777 72.7598 21.2041 72.623 20.5791C71.7148 21.7217 70.4453 22.293 68.8145 22.293C67.3203 22.293 66.0508 21.8438 65.0059 20.9453C63.9609 20.0371 63.4385 18.8994 63.4385 17.5322C63.4385 15.8135 64.0732 14.5146 65.3428 13.6357C66.6123 12.7568 68.458 12.3174 70.8799 12.3174H72.4033V11.4824C72.4033 10.0273 71.7734 9.2998 70.5137 9.2998C69.3418 9.2998 68.7559 9.87598 68.7559 11.0283H63.8193C63.8193 9.49512 64.4688 8.25 65.7676 7.29297C67.0762 6.33594 68.7412 5.85742 70.7627 5.85742C72.7842 5.85742 74.3809 6.35059 75.5527 7.33691C76.7246 8.32324 77.3252 9.67578 77.3545 11.3945V18.4111C77.374 19.8662 77.5986 20.9795 78.0283 21.751V22H73.0918ZM70.001 18.7773C70.6162 18.7773 71.124 18.6455 71.5244 18.3818C71.9346 18.1182 72.2275 17.8203 72.4033 17.4883V14.9541H70.9678C69.249 14.9541 68.3896 15.7256 68.3896 17.2686C68.3896 17.7178 68.541 18.084 68.8438 18.3672C69.1465 18.6406 69.5322 18.7773 70.001 18.7773ZM86.8027 18.4844C87.4961 18.4844 88.0332 18.2988 88.4141 17.9277C88.7949 17.5469 88.9805 17.0195 88.9707 16.3457H93.5996C93.5996 18.084 92.9746 19.5098 91.7246 20.623C90.4844 21.7363 88.8828 22.293 86.9199 22.293C84.6152 22.293 82.7988 21.5703 81.4707 20.125C80.1426 18.6797 79.4785 16.6777 79.4785 14.1191V13.9141C79.4785 12.3125 79.7715 10.9014 80.3574 9.68066C80.9531 8.4502 81.8076 7.50781 82.9209 6.85352C84.0342 6.18945 85.3525 5.85742 86.876 5.85742C88.9365 5.85742 90.5723 6.42871 91.7832 7.57129C92.9941 8.71387 93.5996 10.2617 93.5996 12.2148H88.9707C88.9707 11.3945 88.7705 10.7646 88.3701 10.3252C87.9697 9.88574 87.4326 9.66602 86.7588 9.66602C85.4795 9.66602 84.7324 10.4814 84.5176 12.1123C84.4492 12.6299 84.415 13.3428 84.415 14.251C84.415 15.8428 84.6055 16.9463 84.9863 17.5615C85.3672 18.1768 85.9727 18.4844 86.8027 18.4844ZM101.437 2.20996V6.15039H104.044V9.57812H101.437V16.8291C101.437 17.4248 101.544 17.8398 101.759 18.0742C101.974 18.3086 102.398 18.4258 103.033 18.4258C103.521 18.4258 103.932 18.3965 104.264 18.3379V21.8682C103.375 22.1514 102.447 22.293 101.48 22.293C99.7812 22.293 98.5264 21.8926 97.7158 21.0918C96.9053 20.291 96.5 19.0752 96.5 17.4443V9.57812H94.4785V6.15039H96.5V2.20996H101.437ZM120.45 0.671875L125.211 15.5107L129.957 0.671875H136.725V22H131.568V17.0195L132.066 6.82422L126.91 22H123.512L118.341 6.80957L118.839 17.0195V22H113.697V0.671875H120.45ZM147.447 22.293C145.016 22.293 143.048 21.5703 141.544 20.125C140.04 18.6699 139.288 16.7803 139.288 14.4561V14.0459C139.288 12.4248 139.586 10.9941 140.182 9.75391C140.787 8.51367 141.666 7.55664 142.818 6.88281C143.971 6.19922 145.338 5.85742 146.92 5.85742C149.146 5.85742 150.904 6.55078 152.193 7.9375C153.482 9.31445 154.127 11.2383 154.127 13.709V15.6279H144.312C144.488 16.5166 144.874 17.2148 145.47 17.7227C146.065 18.2305 146.837 18.4844 147.784 18.4844C149.347 18.4844 150.567 17.9375 151.446 16.8438L153.702 19.5098C153.087 20.3594 152.213 21.0381 151.08 21.5459C149.957 22.0439 148.746 22.293 147.447 22.293ZM146.891 9.66602C145.445 9.66602 144.586 10.623 144.312 12.5371H149.293V12.1562C149.312 11.3652 149.112 10.7549 148.692 10.3252C148.272 9.88574 147.672 9.66602 146.891 9.66602Z" fill="black"/>
</svg>
