<svg width="148" height="30" viewBox="0 0 148 30" fill="none" xmlns="http://www.w3.org/2000/svg">
<path id="Experinces" d="M13.8389 13.9619H5.75293V19.0449H15.3037V23H0.611328V1.67188H15.333V5.6416H5.75293V10.1387H13.8389V13.9619ZM23.5947 11.5156L25.8945 7.15039H31.0215L26.8467 14.8701L31.2266 23H26.0703L23.5801 18.3125L21.1338 23H15.9482L20.3428 14.8701L16.1826 7.15039H21.3682L23.5947 11.5156ZM47.3252 15.1924C47.3252 17.6533 46.7686 19.6211 45.6553 21.0957C44.5518 22.5605 43.0576 23.293 41.1729 23.293C39.7178 23.293 38.5215 22.7607 37.584 21.6963V29.0938H32.6475V7.15039H37.2617L37.4082 8.61523C38.3555 7.44336 39.6006 6.85742 41.1436 6.85742C43.0967 6.85742 44.6152 7.58008 45.6992 9.02539C46.7832 10.4609 47.3252 12.4385 47.3252 14.958V15.1924ZM42.3887 14.8848C42.3887 12.0723 41.5684 10.666 39.9277 10.666C38.7559 10.666 37.9746 11.0859 37.584 11.9258V18.166C38.0137 19.0449 38.8047 19.4844 39.957 19.4844C41.5293 19.4844 42.3398 18.127 42.3887 15.4121V14.8848ZM57.1836 23.293C54.752 23.293 52.7842 22.5703 51.2803 21.125C49.7764 19.6699 49.0244 17.7803 49.0244 15.4561V15.0459C49.0244 13.4248 49.3223 11.9941 49.918 10.7539C50.5234 9.51367 51.4023 8.55664 52.5547 7.88281C53.707 7.19922 55.0742 6.85742 56.6562 6.85742C58.8828 6.85742 60.6406 7.55078 61.9297 8.9375C63.2188 10.3145 63.8633 12.2383 63.8633 14.709V16.6279H54.0488C54.2246 17.5166 54.6104 18.2148 55.2061 18.7227C55.8018 19.2305 56.5732 19.4844 57.5205 19.4844C59.083 19.4844 60.3037 18.9375 61.1826 17.8438L63.4385 20.5098C62.8232 21.3594 61.9492 22.0381 60.8164 22.5459C59.6934 23.0439 58.4824 23.293 57.1836 23.293ZM56.627 10.666C55.1816 10.666 54.3223 11.623 54.0488 13.5371H59.0293V13.1562C59.0488 12.3652 58.8486 11.7549 58.4287 11.3252C58.0088 10.8857 57.4082 10.666 56.627 10.666ZM75.4502 11.6182L73.8242 11.501C72.2715 11.501 71.2754 11.9893 70.8359 12.9658V23H65.8994V7.15039H70.5283L70.6895 9.18652C71.5195 7.63379 72.6768 6.85742 74.1611 6.85742C74.6885 6.85742 75.1475 6.91602 75.5381 7.0332L75.4502 11.6182ZM82.4375 23H77.4863V7.15039H82.4375V23ZM77.1934 3.06348C77.1934 2.36035 77.4473 1.78418 77.9551 1.33496C78.4629 0.885742 79.1221 0.661133 79.9326 0.661133C80.7432 0.661133 81.4023 0.885742 81.9102 1.33496C82.418 1.78418 82.6719 2.36035 82.6719 3.06348C82.6719 3.7666 82.418 4.34277 81.9102 4.79199C81.4023 5.24121 80.7432 5.46582 79.9326 5.46582C79.1221 5.46582 78.4629 5.24121 77.9551 4.79199C77.4473 4.34277 77.1934 3.7666 77.1934 3.06348ZM90.0254 7.15039L90.1865 9.01074C91.2803 7.5752 92.7891 6.85742 94.7129 6.85742C96.3633 6.85742 97.5938 7.35059 98.4043 8.33691C99.2246 9.32324 99.6494 10.8076 99.6787 12.79V23H94.7275V12.9951C94.7275 12.1943 94.5664 11.6084 94.2441 11.2373C93.9219 10.8564 93.3359 10.666 92.4863 10.666C91.5195 10.666 90.8018 11.0469 90.333 11.8086V23H85.3965V7.15039H90.0254ZM109.127 19.4844C109.82 19.4844 110.357 19.2988 110.738 18.9277C111.119 18.5469 111.305 18.0195 111.295 17.3457H115.924C115.924 19.084 115.299 20.5098 114.049 21.623C112.809 22.7363 111.207 23.293 109.244 23.293C106.939 23.293 105.123 22.5703 103.795 21.125C102.467 19.6797 101.803 17.6777 101.803 15.1191V14.9141C101.803 13.3125 102.096 11.9014 102.682 10.6807C103.277 9.4502 104.132 8.50781 105.245 7.85352C106.358 7.18945 107.677 6.85742 109.2 6.85742C111.261 6.85742 112.896 7.42871 114.107 8.57129C115.318 9.71387 115.924 11.2617 115.924 13.2148H111.295C111.295 12.3945 111.095 11.7646 110.694 11.3252C110.294 10.8857 109.757 10.666 109.083 10.666C107.804 10.666 107.057 11.4814 106.842 13.1123C106.773 13.6299 106.739 14.3428 106.739 15.251C106.739 16.8428 106.93 17.9463 107.311 18.5615C107.691 19.1768 108.297 19.4844 109.127 19.4844ZM125.68 23.293C123.248 23.293 121.28 22.5703 119.776 21.125C118.272 19.6699 117.521 17.7803 117.521 15.4561V15.0459C117.521 13.4248 117.818 11.9941 118.414 10.7539C119.02 9.51367 119.898 8.55664 121.051 7.88281C122.203 7.19922 123.57 6.85742 125.152 6.85742C127.379 6.85742 129.137 7.55078 130.426 8.9375C131.715 10.3145 132.359 12.2383 132.359 14.709V16.6279H122.545C122.721 17.5166 123.106 18.2148 123.702 18.7227C124.298 19.2305 125.069 19.4844 126.017 19.4844C127.579 19.4844 128.8 18.9375 129.679 17.8438L131.935 20.5098C131.319 21.3594 130.445 22.0381 129.312 22.5459C128.189 23.0439 126.979 23.293 125.68 23.293ZM125.123 10.666C123.678 10.666 122.818 11.623 122.545 13.5371H127.525V13.1562C127.545 12.3652 127.345 11.7549 126.925 11.3252C126.505 10.8857 125.904 10.666 125.123 10.666ZM142.657 18.5469C142.657 18.127 142.438 17.79 141.998 17.5361C141.559 17.2822 140.724 17.0186 139.493 16.7451C138.263 16.4717 137.247 16.1152 136.446 15.6758C135.646 15.2266 135.035 14.6846 134.615 14.0498C134.195 13.415 133.985 12.6875 133.985 11.8672C133.985 10.4121 134.586 9.21582 135.787 8.27832C136.988 7.33105 138.561 6.85742 140.504 6.85742C142.594 6.85742 144.273 7.33105 145.543 8.27832C146.812 9.22559 147.447 10.4707 147.447 12.0137H142.496C142.496 10.7441 141.827 10.1094 140.489 10.1094C139.972 10.1094 139.537 10.2559 139.186 10.5488C138.834 10.832 138.658 11.1885 138.658 11.6182C138.658 12.0576 138.873 12.4141 139.303 12.6875C139.732 12.9609 140.416 13.1855 141.354 13.3613C142.301 13.5371 143.131 13.7471 143.844 13.9912C146.227 14.8115 147.418 16.2812 147.418 18.4004C147.418 19.8457 146.773 21.0225 145.484 21.9307C144.205 22.8389 142.545 23.293 140.504 23.293C139.146 23.293 137.936 23.0488 136.871 22.5605C135.807 22.0723 134.977 21.4082 134.381 20.5684C133.785 19.7285 133.487 18.8447 133.487 17.917H138.102C138.121 18.6494 138.365 19.1865 138.834 19.5283C139.303 19.8604 139.903 20.0264 140.636 20.0264C141.31 20.0264 141.812 19.8896 142.145 19.6162C142.486 19.3428 142.657 18.9863 142.657 18.5469Z" fill="black"/>
</svg>
