<svg width="168" height="25" viewBox="0 0 168 25" fill="none" xmlns="http://www.w3.org/2000/svg">
<path id="KARENDIA" d="M8.01465 15.0195L5.34863 17.8906V25H0.22168V0.117188H5.34863V11.3965L7.60449 8.30322L13.9448 0.117188H20.251L11.4155 11.1743L20.5073 25H14.4062L8.01465 15.0195ZM36.4863 19.873H27.4971L25.7881 25H20.3364L29.5991 0.117188H34.3501L43.6641 25H38.2124L36.4863 19.873ZM28.8813 15.7202H35.1021L31.9746 6.40625L28.8813 15.7202ZM55.1997 15.8911H51.1152V25H45.9883V0.117188H55.2339C58.1733 0.117188 60.4406 0.772298 62.0356 2.08252C63.6307 3.39274 64.4282 5.24414 64.4282 7.63672C64.4282 9.33431 64.0579 10.7528 63.3174 11.8921C62.5882 13.02 61.4774 13.9201 59.9849 14.5923L65.3682 24.7607V25H59.8652L55.1997 15.8911ZM51.1152 11.7383H55.251C56.5384 11.7383 57.5353 11.4136 58.2417 10.7642C58.9481 10.1034 59.3013 9.19759 59.3013 8.04688C59.3013 6.87337 58.9652 5.95052 58.293 5.27832C57.6322 4.60612 56.6125 4.27002 55.2339 4.27002H51.1152V11.7383ZM83.3125 14.2163H73.4688V20.8813H85.0215V25H68.3418V0.117188H84.9873V4.27002H73.4688V10.2002H83.3125V14.2163ZM108.264 25H103.137L93.1562 8.62793V25H88.0293V0.117188H93.1562L103.154 16.5234V0.117188H108.264V25ZM112.741 25V0.117188H120.397C122.585 0.117188 124.539 0.612793 126.259 1.604C127.991 2.58382 129.341 3.98519 130.31 5.80811C131.278 7.61963 131.762 9.6818 131.762 11.9946V13.1396C131.762 15.4525 131.284 17.509 130.327 19.3091C129.381 21.1092 128.042 22.5049 126.311 23.4961C124.579 24.4873 122.625 24.9886 120.449 25H112.741ZM117.868 4.27002V20.8813H120.346C122.351 20.8813 123.884 20.2262 124.943 18.916C126.003 17.6058 126.544 15.7316 126.567 13.2935V11.9775C126.567 9.44824 126.043 7.53418 124.995 6.23535C123.946 4.92513 122.414 4.27002 120.397 4.27002H117.868ZM140.957 25H135.83V0.117188H140.957V25ZM160.08 19.873H151.091L149.382 25H143.93L153.193 0.117188H157.944L167.258 25H161.806L160.08 19.873ZM152.475 15.7202H158.696L155.568 6.40625L152.475 15.7202Z" fill="#EEEEEE"/>
</svg>
