<svg width="112" height="30" viewBox="0 0 112 30" fill="none" xmlns="http://www.w3.org/2000/svg">
<path id="Projects" d="M5.75293 15.7637V23H0.611328V1.67188H9.12207C10.7529 1.67188 12.1934 1.97461 13.4434 2.58008C14.7031 3.17578 15.6748 4.03027 16.3584 5.14355C17.0518 6.24707 17.3984 7.50195 17.3984 8.9082C17.3984 10.9883 16.6514 12.6533 15.1572 13.9033C13.6729 15.1436 11.6318 15.7637 9.03418 15.7637H5.75293ZM5.75293 11.7939H9.12207C10.1182 11.7939 10.875 11.5449 11.3926 11.0469C11.9199 10.5488 12.1836 9.8457 12.1836 8.9375C12.1836 7.94141 11.915 7.14551 11.3779 6.5498C10.8408 5.9541 10.1084 5.65137 9.18066 5.6416H5.75293V11.7939ZM29.5127 11.6182L27.8867 11.501C26.334 11.501 25.3379 11.9893 24.8984 12.9658V23H19.9619V7.15039H24.5908L24.752 9.18652C25.582 7.63379 26.7393 6.85742 28.2236 6.85742C28.751 6.85742 29.21 6.91602 29.6006 7.0332L29.5127 11.6182ZM30.1426 14.9287C30.1426 13.3467 30.4502 11.9404 31.0654 10.71C31.6807 9.46973 32.5645 8.51758 33.7168 7.85352C34.8691 7.18945 36.2217 6.85742 37.7744 6.85742C40.1475 6.85742 42.0176 7.59473 43.3848 9.06934C44.752 10.5342 45.4355 12.5312 45.4355 15.0605V15.2363C45.4355 17.707 44.7471 19.6699 43.3701 21.125C42.0029 22.5703 40.1475 23.293 37.8037 23.293C35.5479 23.293 33.7363 22.6191 32.3691 21.2715C31.002 19.9141 30.2646 18.0781 30.1572 15.7637L30.1426 14.9287ZM35.0791 15.2363C35.0791 16.7012 35.3086 17.7754 35.7676 18.459C36.2266 19.1426 36.9053 19.4844 37.8037 19.4844C39.5615 19.4844 40.46 18.1318 40.499 15.4268V14.9287C40.499 12.0869 39.5908 10.666 37.7744 10.666C36.124 10.666 35.2305 11.8916 35.0938 14.3428L35.0791 15.2363ZM52.9209 7.15039V23.542C52.9111 25.417 52.374 26.8623 51.3096 27.8779C50.2451 28.8936 48.7607 29.4014 46.8564 29.4014C46.0361 29.4014 45.2598 29.3184 44.5273 29.1523V25.417C45.0938 25.5049 45.5576 25.5488 45.9189 25.5488C47.2861 25.5488 47.9697 24.8701 47.9697 23.5127V7.15039H52.9209ZM47.6035 3.06348C47.6035 2.36035 47.8574 1.78418 48.3652 1.33496C48.873 0.885742 49.5322 0.661133 50.3428 0.661133C51.1533 0.661133 51.8125 0.885742 52.3203 1.33496C52.8281 1.78418 53.082 2.36035 53.082 3.06348C53.082 3.7666 52.8281 4.34277 52.3203 4.79199C51.8125 5.24121 51.1533 5.46582 50.3428 5.46582C49.5322 5.46582 48.873 5.24121 48.3652 4.79199C47.8574 4.34277 47.6035 3.7666 47.6035 3.06348ZM63.3945 23.293C60.9629 23.293 58.9951 22.5703 57.4912 21.125C55.9873 19.6699 55.2354 17.7803 55.2354 15.4561V15.0459C55.2354 13.4248 55.5332 11.9941 56.1289 10.7539C56.7344 9.51367 57.6133 8.55664 58.7656 7.88281C59.918 7.19922 61.2852 6.85742 62.8672 6.85742C65.0938 6.85742 66.8516 7.55078 68.1406 8.9375C69.4297 10.3145 70.0742 12.2383 70.0742 14.709V16.6279H60.2598C60.4355 17.5166 60.8213 18.2148 61.417 18.7227C62.0127 19.2305 62.7842 19.4844 63.7314 19.4844C65.2939 19.4844 66.5146 18.9375 67.3936 17.8438L69.6494 20.5098C69.0342 21.3594 68.1602 22.0381 67.0273 22.5459C65.9043 23.0439 64.6934 23.293 63.3945 23.293ZM62.8379 10.666C61.3926 10.666 60.5332 11.623 60.2598 13.5371H65.2402V13.1562C65.2598 12.3652 65.0596 11.7549 64.6396 11.3252C64.2197 10.8857 63.6191 10.666 62.8379 10.666ZM78.7754 19.4844C79.4688 19.4844 80.0059 19.2988 80.3867 18.9277C80.7676 18.5469 80.9531 18.0195 80.9434 17.3457H85.5723C85.5723 19.084 84.9473 20.5098 83.6973 21.623C82.457 22.7363 80.8555 23.293 78.8926 23.293C76.5879 23.293 74.7715 22.5703 73.4434 21.125C72.1152 19.6797 71.4512 17.6777 71.4512 15.1191V14.9141C71.4512 13.3125 71.7441 11.9014 72.3301 10.6807C72.9258 9.4502 73.7803 8.50781 74.8936 7.85352C76.0068 7.18945 77.3252 6.85742 78.8486 6.85742C80.9092 6.85742 82.5449 7.42871 83.7559 8.57129C84.9668 9.71387 85.5723 11.2617 85.5723 13.2148H80.9434C80.9434 12.3945 80.7432 11.7646 80.3428 11.3252C79.9424 10.8857 79.4053 10.666 78.7314 10.666C77.4521 10.666 76.7051 11.4814 76.4902 13.1123C76.4219 13.6299 76.3877 14.3428 76.3877 15.251C76.3877 16.8428 76.5781 17.9463 76.959 18.5615C77.3398 19.1768 77.9453 19.4844 78.7754 19.4844ZM93.4092 3.20996V7.15039H96.0166V10.5781H93.4092V17.8291C93.4092 18.4248 93.5166 18.8398 93.7314 19.0742C93.9463 19.3086 94.3711 19.4258 95.0059 19.4258C95.4941 19.4258 95.9043 19.3965 96.2363 19.3379V22.8682C95.3477 23.1514 94.4199 23.293 93.4531 23.293C91.7539 23.293 90.499 22.8926 89.6885 22.0918C88.8779 21.291 88.4727 20.0752 88.4727 18.4443V10.5781H86.4512V7.15039H88.4727V3.20996H93.4092ZM106.271 18.5469C106.271 18.127 106.051 17.79 105.611 17.5361C105.172 17.2822 104.337 17.0186 103.106 16.7451C101.876 16.4717 100.86 16.1152 100.06 15.6758C99.2588 15.2266 98.6484 14.6846 98.2285 14.0498C97.8086 13.415 97.5986 12.6875 97.5986 11.8672C97.5986 10.4121 98.1992 9.21582 99.4004 8.27832C100.602 7.33105 102.174 6.85742 104.117 6.85742C106.207 6.85742 107.887 7.33105 109.156 8.27832C110.426 9.22559 111.061 10.4707 111.061 12.0137H106.109C106.109 10.7441 105.44 10.1094 104.103 10.1094C103.585 10.1094 103.15 10.2559 102.799 10.5488C102.447 10.832 102.271 11.1885 102.271 11.6182C102.271 12.0576 102.486 12.4141 102.916 12.6875C103.346 12.9609 104.029 13.1855 104.967 13.3613C105.914 13.5371 106.744 13.7471 107.457 13.9912C109.84 14.8115 111.031 16.2812 111.031 18.4004C111.031 19.8457 110.387 21.0225 109.098 21.9307C107.818 22.8389 106.158 23.293 104.117 23.293C102.76 23.293 101.549 23.0488 100.484 22.5605C99.4199 22.0723 98.5898 21.4082 97.9941 20.5684C97.3984 19.7285 97.1006 18.8447 97.1006 17.917H101.715C101.734 18.6494 101.979 19.1865 102.447 19.5283C102.916 19.8604 103.517 20.0264 104.249 20.0264C104.923 20.0264 105.426 19.8896 105.758 19.6162C106.1 19.3428 106.271 18.9863 106.271 18.5469Z" fill="black"/>
</svg>
