<svg width="75" height="24" viewBox="0 0 75 24" fill="none" xmlns="http://www.w3.org/2000/svg">
<path id="Skills" d="M12.6123 17.3311C12.6123 16.5791 12.3438 15.9932 11.8066 15.5732C11.2793 15.1533 10.3467 14.7188 9.00879 14.2695C7.6709 13.8203 6.57715 13.3857 5.72754 12.9658C2.96387 11.6084 1.58203 9.74316 1.58203 7.37012C1.58203 6.18848 1.92383 5.14844 2.60742 4.25C3.30078 3.3418 4.27734 2.63867 5.53711 2.14062C6.79688 1.63281 8.21289 1.37891 9.78516 1.37891C11.3184 1.37891 12.6904 1.65234 13.9014 2.19922C15.1221 2.74609 16.0693 3.52734 16.7432 4.54297C17.417 5.54883 17.7539 6.70117 17.7539 8H12.627C12.627 7.13086 12.3584 6.45703 11.8213 5.97852C11.2939 5.5 10.5762 5.26074 9.66797 5.26074C8.75 5.26074 8.02246 5.46582 7.48535 5.87598C6.95801 6.27637 6.69434 6.78906 6.69434 7.41406C6.69434 7.96094 6.9873 8.45898 7.57324 8.9082C8.15918 9.34766 9.18945 9.80664 10.6641 10.2852C12.1387 10.7539 13.3496 11.2617 14.2969 11.8086C16.6016 13.1367 17.7539 14.9678 17.7539 17.3018C17.7539 19.167 17.0508 20.6318 15.6445 21.6963C14.2383 22.7607 12.3096 23.293 9.8584 23.293C8.12988 23.293 6.5625 22.9854 5.15625 22.3701C3.75977 21.7451 2.70508 20.8955 1.99219 19.8213C1.28906 18.7373 0.9375 17.4922 0.9375 16.0859H6.09375C6.09375 17.2285 6.38672 18.0732 6.97266 18.6201C7.56836 19.1572 8.53027 19.4258 9.8584 19.4258C10.708 19.4258 11.377 19.2451 11.8652 18.8838C12.3633 18.5127 12.6123 17.9951 12.6123 17.3311ZM26.5283 17.0967L25.1367 18.4883V23H20.2002V0.485352H25.1367V12.4385L25.6348 11.7793L29.3555 7.15039H35.2734L29.7217 13.6689L35.6396 23H29.9854L26.5283 17.0967ZM41.7773 23H36.8262V7.15039H41.7773V23ZM36.5332 3.06348C36.5332 2.36035 36.7871 1.78418 37.2949 1.33496C37.8027 0.885742 38.4619 0.661133 39.2725 0.661133C40.083 0.661133 40.7422 0.885742 41.25 1.33496C41.7578 1.78418 42.0117 2.36035 42.0117 3.06348C42.0117 3.7666 41.7578 4.34277 41.25 4.79199C40.7422 5.24121 40.083 5.46582 39.2725 5.46582C38.4619 5.46582 37.8027 5.24121 37.2949 4.79199C36.7871 4.34277 36.5332 3.7666 36.5332 3.06348ZM50.0391 23H45.0879V0.5H50.0391V23ZM58.3008 23H53.3496V0.5H58.3008V23ZM69.6533 18.5469C69.6533 18.127 69.4336 17.79 68.9941 17.5361C68.5547 17.2822 67.7197 17.0186 66.4893 16.7451C65.2588 16.4717 64.2432 16.1152 63.4424 15.6758C62.6416 15.2266 62.0312 14.6846 61.6113 14.0498C61.1914 13.415 60.9814 12.6875 60.9814 11.8672C60.9814 10.4121 61.582 9.21582 62.7832 8.27832C63.9844 7.33105 65.5566 6.85742 67.5 6.85742C69.5898 6.85742 71.2695 7.33105 72.5391 8.27832C73.8086 9.22559 74.4434 10.4707 74.4434 12.0137H69.4922C69.4922 10.7441 68.8232 10.1094 67.4854 10.1094C66.9678 10.1094 66.5332 10.2559 66.1816 10.5488C65.8301 10.832 65.6543 11.1885 65.6543 11.6182C65.6543 12.0576 65.8691 12.4141 66.2988 12.6875C66.7285 12.9609 67.4121 13.1855 68.3496 13.3613C69.2969 13.5371 70.127 13.7471 70.8398 13.9912C73.2227 14.8115 74.4141 16.2812 74.4141 18.4004C74.4141 19.8457 73.7695 21.0225 72.4805 21.9307C71.2012 22.8389 69.541 23.293 67.5 23.293C66.1426 23.293 64.9316 23.0488 63.8672 22.5605C62.8027 22.0723 61.9727 21.4082 61.377 20.5684C60.7812 19.7285 60.4834 18.8447 60.4834 17.917H65.0977C65.1172 18.6494 65.3613 19.1865 65.8301 19.5283C66.2988 19.8604 66.8994 20.0264 67.6318 20.0264C68.3057 20.0264 68.8086 19.8896 69.1406 19.6162C69.4824 19.3428 69.6533 18.9863 69.6533 18.5469Z" fill="black"/>
</svg>
