<svg width="217" height="213" viewBox="0 0 217 213" fill="none" xmlns="http://www.w3.org/2000/svg">
<g id="frwheel">
<path id="Vector" d="M204.236 61.428L194.482 43.8307L175.957 54.0989L185.712 71.6963L204.236 61.428Z" fill="#3F3D56"/>
<path id="Vector_2" d="M194.21 168.531L204.872 151.468L186.91 140.244L176.248 157.307L194.21 168.531Z" fill="#3F3D56"/>
<path id="Vector_3" d="M191.99 116H216.35V98H191.99V116Z" fill="#3F3D56"/>
<path id="Vector_4" d="M115.73 0.57H95.61V21.75H115.73V0.57Z" fill="#3F3D56"/>
<path id="Vector_5" d="M168.87 19.5072L151.624 9.14464L140.715 27.2994L157.961 37.662L168.87 19.5072Z" fill="#3F3D56"/>
<path id="Vector_6" d="M30.9326 71.7051L40.687 54.1078L22.1626 43.8395L12.4082 61.4368L30.9326 71.7051Z" fill="#3F3D56"/>
<path id="Vector_7" d="M40.3938 157.305L29.7318 140.242L11.7702 151.466L22.4321 168.528L40.3938 157.305Z" fill="#3F3D56"/>
<path id="Vector_8" d="M58.681 37.6638L75.9272 27.3012L65.0187 9.14638L47.7725 19.5089L58.681 37.6638Z" fill="#3F3D56"/>
<path id="Vector_9" d="M115.73 191.2H95.61V212.38H115.73V191.2Z" fill="#3F3D56"/>
<path id="Vector_10" d="M157.957 175.28L140.711 185.642L151.62 203.797L168.866 193.435L157.957 175.28Z" fill="#3F3D56"/>
<path id="Vector_11" d="M47.7686 193.429L65.0148 203.792L75.9233 185.637L58.6771 175.274L47.7686 193.429Z" fill="#3F3D56"/>
<path id="Vector_12" d="M24.65 98H0.289978V116H24.65V98Z" fill="#3F3D56"/>
</g>
</svg>
