<svg width="209" height="206" viewBox="0 0 209 206" fill="none" xmlns="http://www.w3.org/2000/svg">
<g id="lwheel">
<path id="Vector" d="M163.988 14.38L147.112 3.42477L135.579 21.1898L152.455 32.145L163.988 14.38Z" fill="#3F3D56"/>
<path id="Vector_2" d="M197.885 57.4992L188.748 39.5737L169.878 49.1926L179.015 67.118L197.885 57.4992Z" fill="#3F3D56"/>
<path id="Vector_3" d="M184.167 164.156L195.415 147.474L177.854 135.633L166.606 152.316L184.167 164.156Z" fill="#3F3D56"/>
<path id="Vector_4" d="M29.4146 149.27L19.3546 131.766L0.927959 142.356L10.988 159.86L29.4146 149.27Z" fill="#3F3D56"/>
<path id="Vector_5" d="M53.2687 28.6724L70.8643 18.915L60.5928 0.392303L42.9972 10.1497L53.2687 28.6724Z" fill="#3F3D56"/>
<path id="Vector_6" d="M104.94 184.113L84.8326 183.415L84.0971 204.582L104.205 205.28L104.94 184.113Z" fill="#3F3D56"/>
<path id="Vector_7" d="M147.705 169.681L130.11 179.439L140.381 197.962L157.977 188.204L147.705 169.681Z" fill="#3F3D56"/>
<path id="Vector_8" d="M36.9716 183.978L53.8476 194.933L65.3799 177.168L48.504 166.213L36.9716 183.978Z" fill="#3F3D56"/>
<path id="Vector_9" d="M183.777 111.587L208.122 112.433L208.747 94.4436L184.402 93.5977L183.777 111.587Z" fill="#3F3D56"/>
<path id="Vector_10" d="M100.44 30.34C101.25 30.34 102.06 30.34 102.87 30.34C120.913 30.9554 137.993 38.6342 150.428 51.722C162.864 64.8098 169.66 82.259 169.354 100.31C169.047 118.361 161.661 135.569 148.788 148.227C135.914 160.885 118.584 167.978 100.53 167.98C99.7199 167.98 98.9099 167.98 98.0899 167.98C80.0458 167.365 62.9657 159.685 50.5299 146.596C38.0941 133.507 31.2981 116.057 31.6063 98.0048C31.9145 79.9529 39.3023 62.7445 52.1776 50.0878C65.053 37.431 82.3853 30.3391 100.44 30.34V30.34ZM100.44 13.34C77.9265 13.3372 56.3132 22.1792 40.2571 37.9606C24.201 53.7421 14.9875 75.1997 14.6019 97.7098C14.2163 120.22 22.6895 141.98 38.1957 158.303C53.7018 174.625 74.9996 184.202 97.4999 184.97C98.4999 184.97 99.4999 185.02 100.5 185.02C123.012 185.02 144.624 176.176 160.678 160.394C176.732 144.612 185.944 123.154 186.328 100.645C186.712 78.136 178.238 56.3767 162.732 40.0556C147.226 23.7346 125.929 14.1583 103.43 13.39C102.43 13.39 101.43 13.34 100.43 13.34H100.44Z" fill="#3F3D56"/>
</g>
</svg>
