<svg width="217" height="215" viewBox="0 0 217 215" fill="none" xmlns="http://www.w3.org/2000/svg">
<g id="mwheel">
<path id="Vector" d="M116 0H96V22H116V0Z" fill="#3F3D56"/>
<path id="Vector_2" d="M169.031 19.4514L151.76 9.07379L140.835 27.2549L158.107 37.6325L169.031 19.4514Z" fill="#3F3D56"/>
<path id="Vector_3" d="M204.451 61.4299L194.682 43.807L176.131 54.0902L185.899 71.7131L204.451 61.4299Z" fill="#3F3D56"/>
<path id="Vector_4" d="M194.418 168.682L205.095 151.595L187.107 140.355L176.43 157.442L194.418 168.682Z" fill="#3F3D56"/>
<path id="Vector_5" d="M31.0193 71.6031L40.7736 54.0058L22.2492 43.7375L12.4948 61.3348L31.0193 71.6031Z" fill="#3F3D56"/>
<path id="Vector_6" d="M40.3789 157.435L29.7014 140.347L11.7137 151.587L22.3911 168.675L40.3789 157.435Z" fill="#3F3D56"/>
<path id="Vector_7" d="M58.7609 37.5773L76.0071 27.2147L65.0986 9.05989L47.8524 19.4225L58.7609 37.5773Z" fill="#3F3D56"/>
<path id="Vector_8" d="M115.81 193.11H95.69V214.29H115.81V193.11Z" fill="#3F3D56"/>
<path id="Vector_9" d="M158.11 175.44L140.838 185.817L151.763 203.999L169.034 193.621L158.11 175.44Z" fill="#3F3D56"/>
<path id="Vector_10" d="M47.7673 193.622L65.0386 204L75.9629 185.819L58.6917 175.441L47.7673 193.622Z" fill="#3F3D56"/>
<path id="Vector_11" d="M25 98H0V116H25V98Z" fill="#3F3D56"/>
<path id="Vector_12" d="M192 116H217V98H192V116Z" fill="#3F3D56"/>
<path id="middle wheel" d="M108 38.0317C121.641 38.0317 134.976 42.0769 146.318 49.6556C157.66 57.2344 166.5 68.0064 171.719 80.6093C176.939 93.2122 178.304 107.08 175.642 120.459C172.98 133.838 166.411 146.126 156.764 155.771C147.118 165.416 134.828 171.984 121.449 174.644C108.07 177.304 94.2022 175.937 81.6 170.715C68.9979 165.494 58.2272 156.653 50.6501 145.309C43.073 133.966 39.0297 120.631 39.0317 106.99C39.0344 88.7002 46.3018 71.1604 59.2356 58.2285C72.1694 45.2966 89.7102 38.0317 108 38.0317ZM108 21C90.9904 21 74.3628 26.0441 60.2199 35.4943C46.0771 44.9446 35.0543 58.3765 28.5455 74.0915C22.0366 89.8066 20.3341 107.099 23.6532 123.781C26.9724 140.464 35.1641 155.788 47.1924 167.815C59.2207 179.842 74.5454 188.032 91.2284 191.349C107.911 194.666 125.203 192.961 140.918 186.451C156.632 179.94 170.063 168.916 179.511 154.772C188.96 140.628 194.002 124 194 106.99C193.973 84.1904 184.904 62.3324 168.781 46.2116C152.659 30.0908 130.8 21.0239 108 21Z" fill="#3F3D56"/>
</g>
</svg>
